<svg width="755" height="162" viewBox="0 0 755 162" fill="none" xmlns="http://www.w3.org/2000/svg">
<path d="M36.576 89.252L23.856 104.94V159H0.536V3.18H23.856V72.716L77.28 3.18H105.688L52.052 71.656L113.32 159H84.276L36.576 89.252ZM198.274 161.12C184.141 161.12 171.067 157.869 159.054 151.368C147.182 144.725 137.713 135.327 130.646 123.172C123.579 111.017 120.046 96.884 120.046 80.772C120.046 64.5187 123.579 50.3853 130.646 38.372C137.713 26.2173 147.182 16.8893 159.054 10.388C171.067 3.88666 184.141 0.635992 198.274 0.635992C212.407 0.635992 225.41 3.88666 237.282 10.388C249.295 16.8893 258.835 26.2173 265.902 38.372C272.969 50.3853 276.502 64.5187 276.502 80.772C276.502 96.884 272.969 111.017 265.902 123.172C258.835 135.327 249.295 144.725 237.282 151.368C225.41 157.869 212.407 161.12 198.274 161.12ZM198.274 139.708C208.026 139.708 216.93 137.447 224.986 132.924C233.042 128.26 239.402 121.547 244.066 112.784C248.871 103.88 251.274 93.28 251.274 80.984C251.274 68.5467 248.871 57.9467 244.066 49.184C239.402 40.28 233.042 33.5667 224.986 29.044C217.071 24.5213 208.167 22.26 198.274 22.26C188.381 22.26 179.406 24.5213 171.35 29.044C163.294 33.5667 156.934 40.28 152.27 49.184C147.606 57.9467 145.274 68.5467 145.274 80.984C145.274 93.28 147.677 103.88 152.482 112.784C157.287 121.547 163.718 128.26 171.774 132.924C179.971 137.447 188.805 139.708 198.274 139.708ZM276.663 3.18H303.587L350.227 110.24L397.079 3.18H423.791L351.923 159H348.743L276.663 3.18ZM436.958 3.18H460.914V137.8H505.646V159H436.958V3.18ZM528.254 3.18H596.518V23.956H551.786V66.992H587.826V88.192H551.786V138.012H603.514V159H528.254V3.18ZM607.499 3.18H634.423L681.063 110.24L727.915 3.18H754.627L682.759 159H679.579L607.499 3.18Z" fill="white"/>
</svg>
