<svg width="576" height="162" viewBox="0 0 576 162" fill="none" xmlns="http://www.w3.org/2000/svg">
<g filter="url(#filter0_i_17_9)">
<path d="M80.252 161.12C64.8467 161.12 51.0667 157.587 38.912 150.52C26.7573 143.453 17.2173 133.772 10.292 121.476C3.508 109.039 0.116 95.1173 0.116 79.712C0.116 64.7307 3.57867 51.2333 10.504 39.22C17.4293 27.2067 27.04 17.808 39.336 11.024C51.632 4.23999 65.4827 0.847989 80.888 0.847989C89.2267 0.847989 96.7173 1.62533 103.36 3.18C110.144 4.59333 115.656 6.28933 119.896 8.26799C124.136 10.1053 127.033 11.7307 128.588 13.144L119.26 33.072C110.497 26.0053 97.5653 22.472 80.464 22.472C69.1573 22.472 59.3347 24.9453 50.996 29.892C42.6573 34.8387 36.2973 41.552 31.916 50.032C27.5347 58.512 25.344 67.9813 25.344 78.44C25.344 90.312 27.676 100.912 32.34 110.24C37.1453 119.568 43.7173 126.847 52.056 132.076C60.536 137.164 70.076 139.708 80.676 139.708C87.3187 139.708 93.6787 138.931 99.756 137.376C105.833 135.68 110.992 133.065 115.232 129.532V99.428H83.22V77.592H138.764V138.648C133.676 145.008 125.973 150.379 115.656 154.76C105.48 159 93.6787 161.12 80.252 161.12ZM222.322 2.96799L297.37 159H270.022L256.666 128.472H185.222L171.866 159H145.366L219.99 2.96799H222.322ZM211.722 69.324L194.762 107.06H247.338L230.59 69.536L221.474 48.124H221.05L211.722 69.324ZM350.491 86.284L340.739 64.236L336.287 86.284L321.871 159H298.339L330.563 3.18H333.107L375.931 87.344L388.651 115.54L401.371 87.344L443.347 3.18H445.679L479.175 159H455.855L440.167 86.284L435.503 64.236L427.023 86.284L389.287 159H388.015L350.491 86.284ZM499.851 3.18H568.115V23.956H523.383V66.992H559.423V88.192H523.383V138.012H575.111V159H499.851V3.18Z" fill="#B0008B" fill-opacity="0.76"/>
</g>
<defs>
<filter id="filter0_i_17_9" x="0.115997" y="0.8479" width="574.995" height="164.272" filterUnits="userSpaceOnUse" color-interpolation-filters="sRGB">
<feFlood flood-opacity="0" result="BackgroundImageFix"/>
<feBlend mode="normal" in="SourceGraphic" in2="BackgroundImageFix" result="shape"/>
<feColorMatrix in="SourceAlpha" type="matrix" values="0 0 0 0 0 0 0 0 0 0 0 0 0 0 0 0 0 0 127 0" result="hardAlpha"/>
<feOffset dy="4"/>
<feGaussianBlur stdDeviation="2"/>
<feComposite in2="hardAlpha" operator="arithmetic" k2="-1" k3="1"/>
<feColorMatrix type="matrix" values="0 0 0 0 0 0 0 0 0 0 0 0 0 0 0 0 0 0 0.25 0"/>
<feBlend mode="normal" in2="shape" result="effect1_innerShadow_17_9"/>
</filter>
</defs>
</svg>
